<?xml version="1.0" encoding="UTF-8" standalone="no"?>
<!DOCTYPE svg PUBLIC "-//W3C//DTD SVG 1.1//EN"
 "http://www.w3.org/Graphics/SVG/1.1/DTD/svg11.dtd">
<!-- Generated by graphviz version 2.40.1 (20161225.0304)
 -->
<!-- Title: snakemake_dag Pages: 1 -->
<svg width="646pt" height="332pt"
 viewBox="0.00 0.00 646.00 332.00" xmlns="http://www.w3.org/2000/svg" xmlns:xlink="http://www.w3.org/1999/xlink">
<g id="graph0" class="graph" transform="scale(1 1) rotate(0) translate(4 328)">
<title>snakemake_dag</title>
<polygon fill="#ffffff" stroke="transparent" points="-4,4 -4,-328 642,-328 642,4 -4,4"/>
<!-- 0 -->
<g id="node1" class="node">
<title>0</title>
<path fill="none" stroke="#59d856" stroke-width="2" d="M334,-36C334,-36 304,-36 304,-36 298,-36 292,-30 292,-24 292,-24 292,-12 292,-12 292,-6 298,0 304,0 304,0 334,0 334,0 340,0 346,-6 346,-12 346,-12 346,-24 346,-24 346,-30 340,-36 334,-36"/>
<text text-anchor="middle" x="319" y="-15.5" font-family="sans" font-size="10.00" fill="#000000">all</text>
</g>
<!-- 1 -->
<g id="node2" class="node">
<title>1</title>
<path fill="none" stroke="#56a9d8" stroke-width="2" d="M200,-108C200,-108 144,-108 144,-108 138,-108 132,-102 132,-96 132,-96 132,-84 132,-84 132,-78 138,-72 144,-72 144,-72 200,-72 200,-72 206,-72 212,-78 212,-84 212,-84 212,-96 212,-96 212,-102 206,-108 200,-108"/>
<text text-anchor="middle" x="172" y="-87.5" font-family="sans" font-size="10.00" fill="#000000">featureCount</text>
</g>
<!-- 1&#45;&gt;0 -->
<g id="edge1" class="edge">
<title>1&#45;&gt;0</title>
<path fill="none" stroke="#c0c0c0" stroke-width="2" d="M209.0943,-71.8314C231.5698,-60.823 260.1214,-46.8385 282.4903,-35.8823"/>
<polygon fill="#c0c0c0" stroke="#c0c0c0" stroke-width="2" points="284.2216,-38.9316 291.6627,-31.3897 281.1425,-32.6452 284.2216,-38.9316"/>
</g>
<!-- 2 -->
<g id="node3" class="node">
<title>2</title>
<path fill="none" stroke="#56a9d8" stroke-width="2" d="M298,-108C298,-108 242,-108 242,-108 236,-108 230,-102 230,-96 230,-96 230,-84 230,-84 230,-78 236,-72 242,-72 242,-72 298,-72 298,-72 304,-72 310,-78 310,-84 310,-84 310,-96 310,-96 310,-102 304,-108 298,-108"/>
<text text-anchor="middle" x="270" y="-87.5" font-family="sans" font-size="10.00" fill="#000000">featureCount</text>
</g>
<!-- 2&#45;&gt;0 -->
<g id="edge2" class="edge">
<title>2&#45;&gt;0</title>
<path fill="none" stroke="#c0c0c0" stroke-width="2" d="M282.3648,-71.8314C287.9509,-63.6232 294.663,-53.7606 300.8072,-44.7323"/>
<polygon fill="#c0c0c0" stroke="#c0c0c0" stroke-width="2" points="303.736,-46.6496 306.4687,-36.4133 297.949,-42.7112 303.736,-46.6496"/>
</g>
<!-- 3 -->
<g id="node4" class="node">
<title>3</title>
<path fill="none" stroke="#56a9d8" stroke-width="2" d="M396,-108C396,-108 340,-108 340,-108 334,-108 328,-102 328,-96 328,-96 328,-84 328,-84 328,-78 334,-72 340,-72 340,-72 396,-72 396,-72 402,-72 408,-78 408,-84 408,-84 408,-96 408,-96 408,-102 402,-108 396,-108"/>
<text text-anchor="middle" x="368" y="-87.5" font-family="sans" font-size="10.00" fill="#000000">featureCount</text>
</g>
<!-- 3&#45;&gt;0 -->
<g id="edge3" class="edge">
<title>3&#45;&gt;0</title>
<path fill="none" stroke="#c0c0c0" stroke-width="2" d="M355.6352,-71.8314C350.0491,-63.6232 343.337,-53.7606 337.1928,-44.7323"/>
<polygon fill="#c0c0c0" stroke="#c0c0c0" stroke-width="2" points="340.051,-42.7112 331.5313,-36.4133 334.264,-46.6496 340.051,-42.7112"/>
</g>
<!-- 4 -->
<g id="node5" class="node">
<title>4</title>
<path fill="none" stroke="#56a9d8" stroke-width="2" d="M494,-108C494,-108 438,-108 438,-108 432,-108 426,-102 426,-96 426,-96 426,-84 426,-84 426,-78 432,-72 438,-72 438,-72 494,-72 494,-72 500,-72 506,-78 506,-84 506,-84 506,-96 506,-96 506,-102 500,-108 494,-108"/>
<text text-anchor="middle" x="466" y="-87.5" font-family="sans" font-size="10.00" fill="#000000">featureCount</text>
</g>
<!-- 4&#45;&gt;0 -->
<g id="edge4" class="edge">
<title>4&#45;&gt;0</title>
<path fill="none" stroke="#c0c0c0" stroke-width="2" d="M428.9057,-71.8314C406.4302,-60.823 377.8786,-46.8385 355.5097,-35.8823"/>
<polygon fill="#c0c0c0" stroke="#c0c0c0" stroke-width="2" points="356.8575,-32.6452 346.3373,-31.3897 353.7784,-38.9316 356.8575,-32.6452"/>
</g>
<!-- 5 -->
<g id="node6" class="node">
<title>5</title>
<path fill="none" stroke="#afd856" stroke-width="2" d="M191,-180C191,-180 153,-180 153,-180 147,-180 141,-174 141,-168 141,-168 141,-156 141,-156 141,-150 147,-144 153,-144 153,-144 191,-144 191,-144 197,-144 203,-150 203,-156 203,-156 203,-168 203,-168 203,-174 197,-180 191,-180"/>
<text text-anchor="middle" x="172" y="-159.5" font-family="sans" font-size="10.00" fill="#000000">sortIndex</text>
</g>
<!-- 5&#45;&gt;1 -->
<g id="edge5" class="edge">
<title>5&#45;&gt;1</title>
<path fill="none" stroke="#c0c0c0" stroke-width="2" d="M172,-143.8314C172,-136.131 172,-126.9743 172,-118.4166"/>
<polygon fill="#c0c0c0" stroke="#c0c0c0" stroke-width="2" points="175.5001,-118.4132 172,-108.4133 168.5001,-118.4133 175.5001,-118.4132"/>
</g>
<!-- 6 -->
<g id="node7" class="node">
<title>6</title>
<path fill="none" stroke="#afd856" stroke-width="2" d="M289,-180C289,-180 251,-180 251,-180 245,-180 239,-174 239,-168 239,-168 239,-156 239,-156 239,-150 245,-144 251,-144 251,-144 289,-144 289,-144 295,-144 301,-150 301,-156 301,-156 301,-168 301,-168 301,-174 295,-180 289,-180"/>
<text text-anchor="middle" x="270" y="-159.5" font-family="sans" font-size="10.00" fill="#000000">sortIndex</text>
</g>
<!-- 6&#45;&gt;2 -->
<g id="edge6" class="edge">
<title>6&#45;&gt;2</title>
<path fill="none" stroke="#c0c0c0" stroke-width="2" d="M270,-143.8314C270,-136.131 270,-126.9743 270,-118.4166"/>
<polygon fill="#c0c0c0" stroke="#c0c0c0" stroke-width="2" points="273.5001,-118.4132 270,-108.4133 266.5001,-118.4133 273.5001,-118.4132"/>
</g>
<!-- 7 -->
<g id="node8" class="node">
<title>7</title>
<path fill="none" stroke="#afd856" stroke-width="2" d="M387,-180C387,-180 349,-180 349,-180 343,-180 337,-174 337,-168 337,-168 337,-156 337,-156 337,-150 343,-144 349,-144 349,-144 387,-144 387,-144 393,-144 399,-150 399,-156 399,-156 399,-168 399,-168 399,-174 393,-180 387,-180"/>
<text text-anchor="middle" x="368" y="-159.5" font-family="sans" font-size="10.00" fill="#000000">sortIndex</text>
</g>
<!-- 7&#45;&gt;3 -->
<g id="edge7" class="edge">
<title>7&#45;&gt;3</title>
<path fill="none" stroke="#c0c0c0" stroke-width="2" d="M368,-143.8314C368,-136.131 368,-126.9743 368,-118.4166"/>
<polygon fill="#c0c0c0" stroke="#c0c0c0" stroke-width="2" points="371.5001,-118.4132 368,-108.4133 364.5001,-118.4133 371.5001,-118.4132"/>
</g>
<!-- 8 -->
<g id="node9" class="node">
<title>8</title>
<path fill="none" stroke="#afd856" stroke-width="2" d="M485,-180C485,-180 447,-180 447,-180 441,-180 435,-174 435,-168 435,-168 435,-156 435,-156 435,-150 441,-144 447,-144 447,-144 485,-144 485,-144 491,-144 497,-150 497,-156 497,-156 497,-168 497,-168 497,-174 491,-180 485,-180"/>
<text text-anchor="middle" x="466" y="-159.5" font-family="sans" font-size="10.00" fill="#000000">sortIndex</text>
</g>
<!-- 8&#45;&gt;4 -->
<g id="edge8" class="edge">
<title>8&#45;&gt;4</title>
<path fill="none" stroke="#c0c0c0" stroke-width="2" d="M466,-143.8314C466,-136.131 466,-126.9743 466,-118.4166"/>
<polygon fill="#c0c0c0" stroke="#c0c0c0" stroke-width="2" points="469.5001,-118.4132 466,-108.4133 462.5001,-118.4133 469.5001,-118.4132"/>
</g>
<!-- 9 -->
<g id="node10" class="node">
<title>9</title>
<path fill="none" stroke="#56d8a9" stroke-width="2" d="M193,-252C193,-252 151,-252 151,-252 145,-252 139,-246 139,-240 139,-240 139,-228 139,-228 139,-222 145,-216 151,-216 151,-216 193,-216 193,-216 199,-216 205,-222 205,-228 205,-228 205,-240 205,-240 205,-246 199,-252 193,-252"/>
<text text-anchor="middle" x="172" y="-231.5" font-family="sans" font-size="10.00" fill="#000000">alignment</text>
</g>
<!-- 9&#45;&gt;5 -->
<g id="edge9" class="edge">
<title>9&#45;&gt;5</title>
<path fill="none" stroke="#c0c0c0" stroke-width="2" d="M172,-215.8314C172,-208.131 172,-198.9743 172,-190.4166"/>
<polygon fill="#c0c0c0" stroke="#c0c0c0" stroke-width="2" points="175.5001,-190.4132 172,-180.4133 168.5001,-190.4133 175.5001,-190.4132"/>
</g>
<!-- 10 -->
<g id="node11" class="node">
<title>10</title>
<path fill="none" stroke="#56d8a9" stroke-width="2" d="M291,-252C291,-252 249,-252 249,-252 243,-252 237,-246 237,-240 237,-240 237,-228 237,-228 237,-222 243,-216 249,-216 249,-216 291,-216 291,-216 297,-216 303,-222 303,-228 303,-228 303,-240 303,-240 303,-246 297,-252 291,-252"/>
<text text-anchor="middle" x="270" y="-231.5" font-family="sans" font-size="10.00" fill="#000000">alignment</text>
</g>
<!-- 10&#45;&gt;6 -->
<g id="edge10" class="edge">
<title>10&#45;&gt;6</title>
<path fill="none" stroke="#c0c0c0" stroke-width="2" d="M270,-215.8314C270,-208.131 270,-198.9743 270,-190.4166"/>
<polygon fill="#c0c0c0" stroke="#c0c0c0" stroke-width="2" points="273.5001,-190.4132 270,-180.4133 266.5001,-190.4133 273.5001,-190.4132"/>
</g>
<!-- 11 -->
<g id="node12" class="node">
<title>11</title>
<path fill="none" stroke="#56d8a9" stroke-width="2" d="M389,-252C389,-252 347,-252 347,-252 341,-252 335,-246 335,-240 335,-240 335,-228 335,-228 335,-222 341,-216 347,-216 347,-216 389,-216 389,-216 395,-216 401,-222 401,-228 401,-228 401,-240 401,-240 401,-246 395,-252 389,-252"/>
<text text-anchor="middle" x="368" y="-231.5" font-family="sans" font-size="10.00" fill="#000000">alignment</text>
</g>
<!-- 11&#45;&gt;7 -->
<g id="edge11" class="edge">
<title>11&#45;&gt;7</title>
<path fill="none" stroke="#c0c0c0" stroke-width="2" d="M368,-215.8314C368,-208.131 368,-198.9743 368,-190.4166"/>
<polygon fill="#c0c0c0" stroke="#c0c0c0" stroke-width="2" points="371.5001,-190.4132 368,-180.4133 364.5001,-190.4133 371.5001,-190.4132"/>
</g>
<!-- 12 -->
<g id="node13" class="node">
<title>12</title>
<path fill="none" stroke="#56d8a9" stroke-width="2" d="M487,-252C487,-252 445,-252 445,-252 439,-252 433,-246 433,-240 433,-240 433,-228 433,-228 433,-222 439,-216 445,-216 445,-216 487,-216 487,-216 493,-216 499,-222 499,-228 499,-228 499,-240 499,-240 499,-246 493,-252 487,-252"/>
<text text-anchor="middle" x="466" y="-231.5" font-family="sans" font-size="10.00" fill="#000000">alignment</text>
</g>
<!-- 12&#45;&gt;8 -->
<g id="edge12" class="edge">
<title>12&#45;&gt;8</title>
<path fill="none" stroke="#c0c0c0" stroke-width="2" d="M466,-215.8314C466,-208.131 466,-198.9743 466,-190.4166"/>
<polygon fill="#c0c0c0" stroke="#c0c0c0" stroke-width="2" points="469.5001,-190.4132 466,-180.4133 462.5001,-190.4133 469.5001,-190.4132"/>
</g>
<!-- 13 -->
<g id="node14" class="node">
<title>13</title>
<path fill="none" stroke="#d85656" stroke-width="2" d="M349.5,-324C349.5,-324 288.5,-324 288.5,-324 282.5,-324 276.5,-318 276.5,-312 276.5,-312 276.5,-300 276.5,-300 276.5,-294 282.5,-288 288.5,-288 288.5,-288 349.5,-288 349.5,-288 355.5,-288 361.5,-294 361.5,-300 361.5,-300 361.5,-312 361.5,-312 361.5,-318 355.5,-324 349.5,-324"/>
<text text-anchor="middle" x="319" y="-303.5" font-family="sans" font-size="10.00" fill="#000000">indexGenome</text>
</g>
<!-- 13&#45;&gt;9 -->
<g id="edge13" class="edge">
<title>13&#45;&gt;9</title>
<path fill="none" stroke="#c0c0c0" stroke-width="2" d="M281.9057,-287.8314C261.3087,-277.743 235.6089,-265.1554 214.2409,-254.6894"/>
<polygon fill="#c0c0c0" stroke="#c0c0c0" stroke-width="2" points="215.59,-251.453 205.0698,-250.1975 212.5109,-257.7394 215.59,-251.453"/>
</g>
<!-- 13&#45;&gt;10 -->
<g id="edge16" class="edge">
<title>13&#45;&gt;10</title>
<path fill="none" stroke="#c0c0c0" stroke-width="2" d="M306.6352,-287.8314C301.0491,-279.6232 294.337,-269.7606 288.1928,-260.7323"/>
<polygon fill="#c0c0c0" stroke="#c0c0c0" stroke-width="2" points="291.051,-258.7112 282.5313,-252.4133 285.264,-262.6496 291.051,-258.7112"/>
</g>
<!-- 13&#45;&gt;11 -->
<g id="edge17" class="edge">
<title>13&#45;&gt;11</title>
<path fill="none" stroke="#c0c0c0" stroke-width="2" d="M331.3648,-287.8314C336.9509,-279.6232 343.663,-269.7606 349.8072,-260.7323"/>
<polygon fill="#c0c0c0" stroke="#c0c0c0" stroke-width="2" points="352.736,-262.6496 355.4687,-252.4133 346.949,-258.7112 352.736,-262.6496"/>
</g>
<!-- 13&#45;&gt;12 -->
<g id="edge20" class="edge">
<title>13&#45;&gt;12</title>
<path fill="none" stroke="#c0c0c0" stroke-width="2" d="M356.0943,-287.8314C376.6913,-277.743 402.3911,-265.1554 423.7591,-254.6894"/>
<polygon fill="#c0c0c0" stroke="#c0c0c0" stroke-width="2" points="425.4891,-257.7394 432.9302,-250.1975 422.41,-251.453 425.4891,-257.7394"/>
</g>
<!-- 14 -->
<g id="node15" class="node">
<title>14</title>
<path fill="none" stroke="#d8ac56" stroke-width="2" d="M108,-324C108,-324 12,-324 12,-324 6,-324 0,-318 0,-312 0,-312 0,-300 0,-300 0,-294 6,-288 12,-288 12,-288 108,-288 108,-288 114,-288 120,-294 120,-300 120,-300 120,-312 120,-312 120,-318 114,-324 108,-324"/>
<text text-anchor="middle" x="60" y="-309" font-family="sans" font-size="10.00" fill="#000000">getReads</text>
<text text-anchor="middle" x="60" y="-298" font-family="sans" font-size="10.00" fill="#000000">sample: SRR1039512</text>
</g>
<!-- 14&#45;&gt;9 -->
<g id="edge14" class="edge">
<title>14&#45;&gt;9</title>
<path fill="none" stroke="#c0c0c0" stroke-width="2" d="M88.2623,-287.8314C102.4552,-278.7074 119.8282,-267.539 135.0636,-257.7449"/>
<polygon fill="#c0c0c0" stroke="#c0c0c0" stroke-width="2" points="137.2276,-260.5146 143.7467,-252.1628 133.4422,-254.6263 137.2276,-260.5146"/>
</g>
<!-- 15 -->
<g id="node16" class="node">
<title>15</title>
<path fill="none" stroke="#d8ac56" stroke-width="2" d="M246,-324C246,-324 150,-324 150,-324 144,-324 138,-318 138,-312 138,-312 138,-300 138,-300 138,-294 144,-288 150,-288 150,-288 246,-288 246,-288 252,-288 258,-294 258,-300 258,-300 258,-312 258,-312 258,-318 252,-324 246,-324"/>
<text text-anchor="middle" x="198" y="-309" font-family="sans" font-size="10.00" fill="#000000">getReads</text>
<text text-anchor="middle" x="198" y="-298" font-family="sans" font-size="10.00" fill="#000000">sample: SRR1039508</text>
</g>
<!-- 15&#45;&gt;10 -->
<g id="edge15" class="edge">
<title>15&#45;&gt;10</title>
<path fill="none" stroke="#c0c0c0" stroke-width="2" d="M216.1686,-287.8314C224.7152,-279.2848 235.0557,-268.9443 244.3802,-259.6198"/>
<polygon fill="#c0c0c0" stroke="#c0c0c0" stroke-width="2" points="246.9905,-261.9592 251.5867,-252.4133 242.0408,-257.0095 246.9905,-261.9592"/>
</g>
<!-- 16 -->
<g id="node17" class="node">
<title>16</title>
<path fill="none" stroke="#d8ac56" stroke-width="2" d="M488,-324C488,-324 392,-324 392,-324 386,-324 380,-318 380,-312 380,-312 380,-300 380,-300 380,-294 386,-288 392,-288 392,-288 488,-288 488,-288 494,-288 500,-294 500,-300 500,-300 500,-312 500,-312 500,-318 494,-324 488,-324"/>
<text text-anchor="middle" x="440" y="-309" font-family="sans" font-size="10.00" fill="#000000">getReads</text>
<text text-anchor="middle" x="440" y="-298" font-family="sans" font-size="10.00" fill="#000000">sample: SRR1039513</text>
</g>
<!-- 16&#45;&gt;11 -->
<g id="edge18" class="edge">
<title>16&#45;&gt;11</title>
<path fill="none" stroke="#c0c0c0" stroke-width="2" d="M421.8314,-287.8314C413.2848,-279.2848 402.9443,-268.9443 393.6198,-259.6198"/>
<polygon fill="#c0c0c0" stroke="#c0c0c0" stroke-width="2" points="395.9592,-257.0095 386.4133,-252.4133 391.0095,-261.9592 395.9592,-257.0095"/>
</g>
<!-- 17 -->
<g id="node18" class="node">
<title>17</title>
<path fill="none" stroke="#d8ac56" stroke-width="2" d="M626,-324C626,-324 530,-324 530,-324 524,-324 518,-318 518,-312 518,-312 518,-300 518,-300 518,-294 524,-288 530,-288 530,-288 626,-288 626,-288 632,-288 638,-294 638,-300 638,-300 638,-312 638,-312 638,-318 632,-324 626,-324"/>
<text text-anchor="middle" x="578" y="-309" font-family="sans" font-size="10.00" fill="#000000">getReads</text>
<text text-anchor="middle" x="578" y="-298" font-family="sans" font-size="10.00" fill="#000000">sample: SRR1039509</text>
</g>
<!-- 17&#45;&gt;12 -->
<g id="edge19" class="edge">
<title>17&#45;&gt;12</title>
<path fill="none" stroke="#c0c0c0" stroke-width="2" d="M549.7377,-287.8314C535.5448,-278.7074 518.1718,-267.539 502.9364,-257.7449"/>
<polygon fill="#c0c0c0" stroke="#c0c0c0" stroke-width="2" points="504.5578,-254.6263 494.2533,-252.1628 500.7724,-260.5146 504.5578,-254.6263"/>
</g>
</g>
</svg>
