<?xml version="1.0" encoding="UTF-8" standalone="no"?>
<!DOCTYPE svg PUBLIC "-//W3C//DTD SVG 1.1//EN"
 "http://www.w3.org/Graphics/SVG/1.1/DTD/svg11.dtd">
<!-- Generated by graphviz version 2.40.1 (20161225.0304)
 -->
<!-- Title: snakemake_dag Pages: 1 -->
<svg width="774pt" height="404pt"
 viewBox="0.00 0.00 774.00 404.00" xmlns="http://www.w3.org/2000/svg" xmlns:xlink="http://www.w3.org/1999/xlink">
<g id="graph0" class="graph" transform="scale(1 1) rotate(0) translate(4 400)">
<title>snakemake_dag</title>
<polygon fill="#ffffff" stroke="transparent" points="-4,4 -4,-400 770,-400 770,4 -4,4"/>
<!-- 0 -->
<g id="node1" class="node">
<title>0</title>
<path fill="none" stroke="#56d89a" stroke-width="2" d="M398,-36C398,-36 368,-36 368,-36 362,-36 356,-30 356,-24 356,-24 356,-12 356,-12 356,-6 362,0 368,0 368,0 398,0 398,0 404,0 410,-6 410,-12 410,-12 410,-24 410,-24 410,-30 404,-36 398,-36"/>
<text text-anchor="middle" x="383" y="-15.5" font-family="sans" font-size="10.00" fill="#000000">end</text>
</g>
<!-- 1 -->
<g id="node2" class="node">
<title>1</title>
<path fill="none" stroke="#59d856" stroke-width="2" d="M418.5,-108C418.5,-108 347.5,-108 347.5,-108 341.5,-108 335.5,-102 335.5,-96 335.5,-96 335.5,-84 335.5,-84 335.5,-78 341.5,-72 347.5,-72 347.5,-72 418.5,-72 418.5,-72 424.5,-72 430.5,-78 430.5,-84 430.5,-84 430.5,-96 430.5,-96 430.5,-102 424.5,-108 418.5,-108"/>
<text text-anchor="middle" x="383" y="-87.5" font-family="sans" font-size="10.00" fill="#000000">summaryReport</text>
</g>
<!-- 1&#45;&gt;0 -->
<g id="edge1" class="edge">
<title>1&#45;&gt;0</title>
<path fill="none" stroke="#c0c0c0" stroke-width="2" d="M383,-71.8314C383,-64.131 383,-54.9743 383,-46.4166"/>
<polygon fill="#c0c0c0" stroke="#c0c0c0" stroke-width="2" points="386.5001,-46.4132 383,-36.4133 379.5001,-46.4133 386.5001,-46.4132"/>
</g>
<!-- 2 -->
<g id="node3" class="node">
<title>2</title>
<path fill="none" stroke="#d89556" stroke-width="2" d="M68,-180C68,-180 12,-180 12,-180 6,-180 0,-174 0,-168 0,-168 0,-156 0,-156 0,-150 6,-144 12,-144 12,-144 68,-144 68,-144 74,-144 80,-150 80,-156 80,-156 80,-168 80,-168 80,-174 74,-180 68,-180"/>
<text text-anchor="middle" x="40" y="-159.5" font-family="sans" font-size="10.00" fill="#000000">alignmentQC</text>
</g>
<!-- 2&#45;&gt;1 -->
<g id="edge2" class="edge">
<title>2&#45;&gt;1</title>
<path fill="none" stroke="#c0c0c0" stroke-width="2" d="M80.2001,-146.6154C83.1598,-145.673 86.1151,-144.7886 89,-144 169.8009,-121.9118 265.5891,-106.2098 325.3427,-97.622"/>
<polygon fill="#c0c0c0" stroke="#c0c0c0" stroke-width="2" points="325.9325,-101.0734 335.3415,-96.2031 324.9489,-94.1429 325.9325,-101.0734"/>
</g>
<!-- 3 -->
<g id="node4" class="node">
<title>3</title>
<path fill="none" stroke="#97d856" stroke-width="2" d="M166,-180C166,-180 110,-180 110,-180 104,-180 98,-174 98,-168 98,-168 98,-156 98,-156 98,-150 104,-144 110,-144 110,-144 166,-144 166,-144 172,-144 178,-150 178,-156 178,-156 178,-168 178,-168 178,-174 172,-180 166,-180"/>
<text text-anchor="middle" x="138" y="-159.5" font-family="sans" font-size="10.00" fill="#000000">featureCount</text>
</g>
<!-- 3&#45;&gt;1 -->
<g id="edge3" class="edge">
<title>3&#45;&gt;1</title>
<path fill="none" stroke="#c0c0c0" stroke-width="2" d="M178.0173,-146.9918C181.0469,-145.9501 184.066,-144.9413 187,-144 233.0665,-129.2212 285.9918,-114.7876 325.2248,-104.5663"/>
<polygon fill="#c0c0c0" stroke="#c0c0c0" stroke-width="2" points="326.3434,-107.8921 335.1456,-101.9953 324.5873,-101.1159 326.3434,-107.8921"/>
</g>
<!-- 4 -->
<g id="node5" class="node">
<title>4</title>
<path fill="none" stroke="#97d856" stroke-width="2" d="M264,-180C264,-180 208,-180 208,-180 202,-180 196,-174 196,-168 196,-168 196,-156 196,-156 196,-150 202,-144 208,-144 208,-144 264,-144 264,-144 270,-144 276,-150 276,-156 276,-156 276,-168 276,-168 276,-174 270,-180 264,-180"/>
<text text-anchor="middle" x="236" y="-159.5" font-family="sans" font-size="10.00" fill="#000000">featureCount</text>
</g>
<!-- 4&#45;&gt;1 -->
<g id="edge4" class="edge">
<title>4&#45;&gt;1</title>
<path fill="none" stroke="#c0c0c0" stroke-width="2" d="M273.0943,-143.8314C292.4926,-134.3302 316.417,-122.6121 336.9862,-112.5374"/>
<polygon fill="#c0c0c0" stroke="#c0c0c0" stroke-width="2" points="338.7314,-115.5799 346.1724,-108.038 335.6522,-109.2935 338.7314,-115.5799"/>
</g>
<!-- 5 -->
<g id="node6" class="node">
<title>5</title>
<path fill="none" stroke="#d89556" stroke-width="2" d="M460,-180C460,-180 404,-180 404,-180 398,-180 392,-174 392,-168 392,-168 392,-156 392,-156 392,-150 398,-144 404,-144 404,-144 460,-144 460,-144 466,-144 472,-150 472,-156 472,-156 472,-168 472,-168 472,-174 466,-180 460,-180"/>
<text text-anchor="middle" x="432" y="-159.5" font-family="sans" font-size="10.00" fill="#000000">alignmentQC</text>
</g>
<!-- 5&#45;&gt;1 -->
<g id="edge5" class="edge">
<title>5&#45;&gt;1</title>
<path fill="none" stroke="#c0c0c0" stroke-width="2" d="M419.6352,-143.8314C414.0491,-135.6232 407.337,-125.7606 401.1928,-116.7323"/>
<polygon fill="#c0c0c0" stroke="#c0c0c0" stroke-width="2" points="404.051,-114.7112 395.5313,-108.4133 398.264,-118.6496 404.051,-114.7112"/>
</g>
<!-- 6 -->
<g id="node7" class="node">
<title>6</title>
<path fill="none" stroke="#d89556" stroke-width="2" d="M362,-180C362,-180 306,-180 306,-180 300,-180 294,-174 294,-168 294,-168 294,-156 294,-156 294,-150 300,-144 306,-144 306,-144 362,-144 362,-144 368,-144 374,-150 374,-156 374,-156 374,-168 374,-168 374,-174 368,-180 362,-180"/>
<text text-anchor="middle" x="334" y="-159.5" font-family="sans" font-size="10.00" fill="#000000">alignmentQC</text>
</g>
<!-- 6&#45;&gt;1 -->
<g id="edge6" class="edge">
<title>6&#45;&gt;1</title>
<path fill="none" stroke="#c0c0c0" stroke-width="2" d="M346.3648,-143.8314C351.9509,-135.6232 358.663,-125.7606 364.8072,-116.7323"/>
<polygon fill="#c0c0c0" stroke="#c0c0c0" stroke-width="2" points="367.736,-118.6496 370.4687,-108.4133 361.949,-114.7112 367.736,-118.6496"/>
</g>
<!-- 7 -->
<g id="node8" class="node">
<title>7</title>
<path fill="none" stroke="#d89556" stroke-width="2" d="M656,-180C656,-180 600,-180 600,-180 594,-180 588,-174 588,-168 588,-168 588,-156 588,-156 588,-150 594,-144 600,-144 600,-144 656,-144 656,-144 662,-144 668,-150 668,-156 668,-156 668,-168 668,-168 668,-174 662,-180 656,-180"/>
<text text-anchor="middle" x="628" y="-159.5" font-family="sans" font-size="10.00" fill="#000000">alignmentQC</text>
</g>
<!-- 7&#45;&gt;1 -->
<g id="edge7" class="edge">
<title>7&#45;&gt;1</title>
<path fill="none" stroke="#c0c0c0" stroke-width="2" d="M587.9827,-146.9918C584.9531,-145.9501 581.934,-144.9413 579,-144 532.9335,-129.2212 480.0082,-114.7876 440.7752,-104.5663"/>
<polygon fill="#c0c0c0" stroke="#c0c0c0" stroke-width="2" points="441.4127,-101.1159 430.8544,-101.9953 439.6566,-107.8921 441.4127,-101.1159"/>
</g>
<!-- 8 -->
<g id="node9" class="node">
<title>8</title>
<path fill="none" stroke="#97d856" stroke-width="2" d="M754,-180C754,-180 698,-180 698,-180 692,-180 686,-174 686,-168 686,-168 686,-156 686,-156 686,-150 692,-144 698,-144 698,-144 754,-144 754,-144 760,-144 766,-150 766,-156 766,-156 766,-168 766,-168 766,-174 760,-180 754,-180"/>
<text text-anchor="middle" x="726" y="-159.5" font-family="sans" font-size="10.00" fill="#000000">featureCount</text>
</g>
<!-- 8&#45;&gt;1 -->
<g id="edge8" class="edge">
<title>8&#45;&gt;1</title>
<path fill="none" stroke="#c0c0c0" stroke-width="2" d="M685.7999,-146.6154C682.8402,-145.673 679.8849,-144.7886 677,-144 596.1991,-121.9118 500.4109,-106.2098 440.6573,-97.622"/>
<polygon fill="#c0c0c0" stroke="#c0c0c0" stroke-width="2" points="441.0511,-94.1429 430.6585,-96.2031 440.0675,-101.0734 441.0511,-94.1429"/>
</g>
<!-- 9 -->
<g id="node10" class="node">
<title>9</title>
<path fill="none" stroke="#97d856" stroke-width="2" d="M558,-180C558,-180 502,-180 502,-180 496,-180 490,-174 490,-168 490,-168 490,-156 490,-156 490,-150 496,-144 502,-144 502,-144 558,-144 558,-144 564,-144 570,-150 570,-156 570,-156 570,-168 570,-168 570,-174 564,-180 558,-180"/>
<text text-anchor="middle" x="530" y="-159.5" font-family="sans" font-size="10.00" fill="#000000">featureCount</text>
</g>
<!-- 9&#45;&gt;1 -->
<g id="edge9" class="edge">
<title>9&#45;&gt;1</title>
<path fill="none" stroke="#c0c0c0" stroke-width="2" d="M492.9057,-143.8314C473.5074,-134.3302 449.583,-122.6121 429.0138,-112.5374"/>
<polygon fill="#c0c0c0" stroke="#c0c0c0" stroke-width="2" points="430.3478,-109.2935 419.8276,-108.038 427.2686,-115.5799 430.3478,-109.2935"/>
</g>
<!-- 10 -->
<g id="node11" class="node">
<title>10</title>
<path fill="none" stroke="#56d8d8" stroke-width="2" d="M150.5,-252C150.5,-252 117.5,-252 117.5,-252 111.5,-252 105.5,-246 105.5,-240 105.5,-240 105.5,-228 105.5,-228 105.5,-222 111.5,-216 117.5,-216 117.5,-216 150.5,-216 150.5,-216 156.5,-216 162.5,-222 162.5,-228 162.5,-228 162.5,-240 162.5,-240 162.5,-246 156.5,-252 150.5,-252"/>
<text text-anchor="middle" x="134" y="-231.5" font-family="sans" font-size="10.00" fill="#000000">sortBAM</text>
</g>
<!-- 10&#45;&gt;2 -->
<g id="edge10" class="edge">
<title>10&#45;&gt;2</title>
<path fill="none" stroke="#c0c0c0" stroke-width="2" d="M110.2798,-215.8314C98.5906,-206.8779 84.3312,-195.9558 71.7191,-186.2955"/>
<polygon fill="#c0c0c0" stroke="#c0c0c0" stroke-width="2" points="73.7797,-183.4651 63.7126,-180.1628 69.5231,-189.0222 73.7797,-183.4651"/>
</g>
<!-- 10&#45;&gt;3 -->
<g id="edge11" class="edge">
<title>10&#45;&gt;3</title>
<path fill="none" stroke="#c0c0c0" stroke-width="2" d="M135.0094,-215.8314C135.4372,-208.131 135.9459,-198.9743 136.4213,-190.4166"/>
<polygon fill="#c0c0c0" stroke="#c0c0c0" stroke-width="2" points="139.9169,-190.592 136.977,-180.4133 132.9276,-190.2037 139.9169,-190.592"/>
</g>
<!-- 11 -->
<g id="node12" class="node">
<title>11</title>
<path fill="none" stroke="#56d8d8" stroke-width="2" d="M317.5,-252C317.5,-252 284.5,-252 284.5,-252 278.5,-252 272.5,-246 272.5,-240 272.5,-240 272.5,-228 272.5,-228 272.5,-222 278.5,-216 284.5,-216 284.5,-216 317.5,-216 317.5,-216 323.5,-216 329.5,-222 329.5,-228 329.5,-228 329.5,-240 329.5,-240 329.5,-246 323.5,-252 317.5,-252"/>
<text text-anchor="middle" x="301" y="-231.5" font-family="sans" font-size="10.00" fill="#000000">sortBAM</text>
</g>
<!-- 11&#45;&gt;4 -->
<g id="edge12" class="edge">
<title>11&#45;&gt;4</title>
<path fill="none" stroke="#c0c0c0" stroke-width="2" d="M284.5978,-215.8314C276.9585,-207.3694 267.7317,-197.1489 259.3793,-187.8971"/>
<polygon fill="#c0c0c0" stroke="#c0c0c0" stroke-width="2" points="261.9221,-185.4906 252.6231,-180.4133 256.7262,-190.1813 261.9221,-185.4906"/>
</g>
<!-- 11&#45;&gt;6 -->
<g id="edge14" class="edge">
<title>11&#45;&gt;6</title>
<path fill="none" stroke="#c0c0c0" stroke-width="2" d="M309.3273,-215.8314C312.973,-207.8771 317.3309,-198.369 321.3627,-189.5723"/>
<polygon fill="#c0c0c0" stroke="#c0c0c0" stroke-width="2" points="324.5757,-190.9622 325.5606,-180.4133 318.2123,-188.0456 324.5757,-190.9622"/>
</g>
<!-- 12 -->
<g id="node13" class="node">
<title>12</title>
<path fill="none" stroke="#56d8d8" stroke-width="2" d="M480.5,-252C480.5,-252 447.5,-252 447.5,-252 441.5,-252 435.5,-246 435.5,-240 435.5,-240 435.5,-228 435.5,-228 435.5,-222 441.5,-216 447.5,-216 447.5,-216 480.5,-216 480.5,-216 486.5,-216 492.5,-222 492.5,-228 492.5,-228 492.5,-240 492.5,-240 492.5,-246 486.5,-252 480.5,-252"/>
<text text-anchor="middle" x="464" y="-231.5" font-family="sans" font-size="10.00" fill="#000000">sortBAM</text>
</g>
<!-- 12&#45;&gt;5 -->
<g id="edge13" class="edge">
<title>12&#45;&gt;5</title>
<path fill="none" stroke="#c0c0c0" stroke-width="2" d="M455.925,-215.8314C452.3898,-207.8771 448.164,-198.369 444.2544,-189.5723"/>
<polygon fill="#c0c0c0" stroke="#c0c0c0" stroke-width="2" points="447.4435,-188.1299 440.1837,-180.4133 441.0468,-190.9729 447.4435,-188.1299"/>
</g>
<!-- 12&#45;&gt;9 -->
<g id="edge17" class="edge">
<title>12&#45;&gt;9</title>
<path fill="none" stroke="#c0c0c0" stroke-width="2" d="M480.6546,-215.8314C488.4114,-207.3694 497.7802,-197.1489 506.261,-187.8971"/>
<polygon fill="#c0c0c0" stroke="#c0c0c0" stroke-width="2" points="508.9439,-190.1499 513.1212,-180.4133 503.7838,-185.4198 508.9439,-190.1499"/>
</g>
<!-- 13 -->
<g id="node14" class="node">
<title>13</title>
<path fill="none" stroke="#56d8d8" stroke-width="2" d="M647.5,-252C647.5,-252 614.5,-252 614.5,-252 608.5,-252 602.5,-246 602.5,-240 602.5,-240 602.5,-228 602.5,-228 602.5,-222 608.5,-216 614.5,-216 614.5,-216 647.5,-216 647.5,-216 653.5,-216 659.5,-222 659.5,-228 659.5,-228 659.5,-240 659.5,-240 659.5,-246 653.5,-252 647.5,-252"/>
<text text-anchor="middle" x="631" y="-231.5" font-family="sans" font-size="10.00" fill="#000000">sortBAM</text>
</g>
<!-- 13&#45;&gt;7 -->
<g id="edge15" class="edge">
<title>13&#45;&gt;7</title>
<path fill="none" stroke="#c0c0c0" stroke-width="2" d="M630.243,-215.8314C629.9221,-208.131 629.5406,-198.9743 629.184,-190.4166"/>
<polygon fill="#c0c0c0" stroke="#c0c0c0" stroke-width="2" points="632.6806,-190.2589 628.7672,-180.4133 625.6867,-190.5503 632.6806,-190.2589"/>
</g>
<!-- 13&#45;&gt;8 -->
<g id="edge16" class="edge">
<title>13&#45;&gt;8</title>
<path fill="none" stroke="#c0c0c0" stroke-width="2" d="M654.9725,-215.8314C666.7861,-206.8779 681.1972,-195.9558 693.9435,-186.2955"/>
<polygon fill="#c0c0c0" stroke="#c0c0c0" stroke-width="2" points="696.1795,-188.9925 702.0352,-180.1628 691.9514,-183.4137 696.1795,-188.9925"/>
</g>
<!-- 14 -->
<g id="node15" class="node">
<title>14</title>
<path fill="none" stroke="#d85656" stroke-width="2" d="M155,-324C155,-324 113,-324 113,-324 107,-324 101,-318 101,-312 101,-312 101,-300 101,-300 101,-294 107,-288 113,-288 113,-288 155,-288 155,-288 161,-288 167,-294 167,-300 167,-300 167,-312 167,-312 167,-318 161,-324 155,-324"/>
<text text-anchor="middle" x="134" y="-303.5" font-family="sans" font-size="10.00" fill="#000000">alignment</text>
</g>
<!-- 14&#45;&gt;10 -->
<g id="edge18" class="edge">
<title>14&#45;&gt;10</title>
<path fill="none" stroke="#c0c0c0" stroke-width="2" d="M134,-287.8314C134,-280.131 134,-270.9743 134,-262.4166"/>
<polygon fill="#c0c0c0" stroke="#c0c0c0" stroke-width="2" points="137.5001,-262.4132 134,-252.4133 130.5001,-262.4133 137.5001,-262.4132"/>
</g>
<!-- 15 -->
<g id="node16" class="node">
<title>15</title>
<path fill="none" stroke="#d85656" stroke-width="2" d="M322,-324C322,-324 280,-324 280,-324 274,-324 268,-318 268,-312 268,-312 268,-300 268,-300 268,-294 274,-288 280,-288 280,-288 322,-288 322,-288 328,-288 334,-294 334,-300 334,-300 334,-312 334,-312 334,-318 328,-324 322,-324"/>
<text text-anchor="middle" x="301" y="-303.5" font-family="sans" font-size="10.00" fill="#000000">alignment</text>
</g>
<!-- 15&#45;&gt;11 -->
<g id="edge19" class="edge">
<title>15&#45;&gt;11</title>
<path fill="none" stroke="#c0c0c0" stroke-width="2" d="M301,-287.8314C301,-280.131 301,-270.9743 301,-262.4166"/>
<polygon fill="#c0c0c0" stroke="#c0c0c0" stroke-width="2" points="304.5001,-262.4132 301,-252.4133 297.5001,-262.4133 304.5001,-262.4132"/>
</g>
<!-- 16 -->
<g id="node17" class="node">
<title>16</title>
<path fill="none" stroke="#d85656" stroke-width="2" d="M485,-324C485,-324 443,-324 443,-324 437,-324 431,-318 431,-312 431,-312 431,-300 431,-300 431,-294 437,-288 443,-288 443,-288 485,-288 485,-288 491,-288 497,-294 497,-300 497,-300 497,-312 497,-312 497,-318 491,-324 485,-324"/>
<text text-anchor="middle" x="464" y="-303.5" font-family="sans" font-size="10.00" fill="#000000">alignment</text>
</g>
<!-- 16&#45;&gt;12 -->
<g id="edge20" class="edge">
<title>16&#45;&gt;12</title>
<path fill="none" stroke="#c0c0c0" stroke-width="2" d="M464,-287.8314C464,-280.131 464,-270.9743 464,-262.4166"/>
<polygon fill="#c0c0c0" stroke="#c0c0c0" stroke-width="2" points="467.5001,-262.4132 464,-252.4133 460.5001,-262.4133 467.5001,-262.4132"/>
</g>
<!-- 17 -->
<g id="node18" class="node">
<title>17</title>
<path fill="none" stroke="#d85656" stroke-width="2" d="M652,-324C652,-324 610,-324 610,-324 604,-324 598,-318 598,-312 598,-312 598,-300 598,-300 598,-294 604,-288 610,-288 610,-288 652,-288 652,-288 658,-288 664,-294 664,-300 664,-300 664,-312 664,-312 664,-318 658,-324 652,-324"/>
<text text-anchor="middle" x="631" y="-303.5" font-family="sans" font-size="10.00" fill="#000000">alignment</text>
</g>
<!-- 17&#45;&gt;13 -->
<g id="edge21" class="edge">
<title>17&#45;&gt;13</title>
<path fill="none" stroke="#c0c0c0" stroke-width="2" d="M631,-287.8314C631,-280.131 631,-270.9743 631,-262.4166"/>
<polygon fill="#c0c0c0" stroke="#c0c0c0" stroke-width="2" points="634.5001,-262.4132 631,-252.4133 627.5001,-262.4133 634.5001,-262.4132"/>
</g>
<!-- 18 -->
<g id="node19" class="node">
<title>18</title>
<path fill="none" stroke="#d6d856" stroke-width="2" d="M409.5,-396C409.5,-396 348.5,-396 348.5,-396 342.5,-396 336.5,-390 336.5,-384 336.5,-384 336.5,-372 336.5,-372 336.5,-366 342.5,-360 348.5,-360 348.5,-360 409.5,-360 409.5,-360 415.5,-360 421.5,-366 421.5,-372 421.5,-372 421.5,-384 421.5,-384 421.5,-390 415.5,-396 409.5,-396"/>
<text text-anchor="middle" x="379" y="-375.5" font-family="sans" font-size="10.00" fill="#000000">indexGenome</text>
</g>
<!-- 18&#45;&gt;14 -->
<g id="edge22" class="edge">
<title>18&#45;&gt;14</title>
<path fill="none" stroke="#c0c0c0" stroke-width="2" d="M336.2191,-362.9618C333.1062,-361.9381 330.009,-360.9408 327,-360 275.8301,-344.0012 216.3376,-327.6984 177.0793,-317.2537"/>
<polygon fill="#c0c0c0" stroke="#c0c0c0" stroke-width="2" points="177.8689,-313.8422 167.306,-314.6633 176.0755,-320.6085 177.8689,-313.8422"/>
</g>
<!-- 18&#45;&gt;15 -->
<g id="edge24" class="edge">
<title>18&#45;&gt;15</title>
<path fill="none" stroke="#c0c0c0" stroke-width="2" d="M359.3173,-359.8314C349.8949,-351.1337 338.4599,-340.5783 328.2204,-331.1265"/>
<polygon fill="#c0c0c0" stroke="#c0c0c0" stroke-width="2" points="330.3984,-328.3738 320.6764,-324.1628 325.6505,-333.5175 330.3984,-328.3738"/>
</g>
<!-- 18&#45;&gt;16 -->
<g id="edge26" class="edge">
<title>18&#45;&gt;16</title>
<path fill="none" stroke="#c0c0c0" stroke-width="2" d="M400.4491,-359.8314C410.8178,-351.0485 423.4229,-340.3712 434.6646,-330.8489"/>
<polygon fill="#c0c0c0" stroke="#c0c0c0" stroke-width="2" points="437.1895,-333.297 442.5578,-324.1628 432.6651,-327.9556 437.1895,-333.297"/>
</g>
<!-- 18&#45;&gt;17 -->
<g id="edge28" class="edge">
<title>18&#45;&gt;17</title>
<path fill="none" stroke="#c0c0c0" stroke-width="2" d="M421.7712,-362.9306C424.8863,-361.9142 427.9868,-360.9271 431,-360 484.7142,-343.4738 547.3693,-327.0036 588.0384,-316.6782"/>
<polygon fill="#c0c0c0" stroke="#c0c0c0" stroke-width="2" points="589.0482,-320.0331 597.8855,-314.1891 587.3327,-313.2465 589.0482,-320.0331"/>
</g>
<!-- 19 -->
<g id="node20" class="node">
<title>19</title>
<path fill="none" stroke="#569ad8" stroke-width="2" d="M168,-396C168,-396 72,-396 72,-396 66,-396 60,-390 60,-384 60,-384 60,-372 60,-372 60,-366 66,-360 72,-360 72,-360 168,-360 168,-360 174,-360 180,-366 180,-372 180,-372 180,-384 180,-384 180,-390 174,-396 168,-396"/>
<text text-anchor="middle" x="120" y="-381" font-family="sans" font-size="10.00" fill="#000000">getReads</text>
<text text-anchor="middle" x="120" y="-370" font-family="sans" font-size="10.00" fill="#000000">sample: SRR1039509</text>
</g>
<!-- 19&#45;&gt;14 -->
<g id="edge23" class="edge">
<title>19&#45;&gt;14</title>
<path fill="none" stroke="#c0c0c0" stroke-width="2" d="M123.5328,-359.8314C125.0301,-352.131 126.8105,-342.9743 128.4745,-334.4166"/>
<polygon fill="#c0c0c0" stroke="#c0c0c0" stroke-width="2" points="131.9465,-334.8975 130.4196,-324.4133 125.0752,-333.5614 131.9465,-334.8975"/>
</g>
<!-- 20 -->
<g id="node21" class="node">
<title>20</title>
<path fill="none" stroke="#569ad8" stroke-width="2" d="M306,-396C306,-396 210,-396 210,-396 204,-396 198,-390 198,-384 198,-384 198,-372 198,-372 198,-366 204,-360 210,-360 210,-360 306,-360 306,-360 312,-360 318,-366 318,-372 318,-372 318,-384 318,-384 318,-390 312,-396 306,-396"/>
<text text-anchor="middle" x="258" y="-381" font-family="sans" font-size="10.00" fill="#000000">getReads</text>
<text text-anchor="middle" x="258" y="-370" font-family="sans" font-size="10.00" fill="#000000">sample: SRR1039508</text>
</g>
<!-- 20&#45;&gt;15 -->
<g id="edge25" class="edge">
<title>20&#45;&gt;15</title>
<path fill="none" stroke="#c0c0c0" stroke-width="2" d="M268.8507,-359.8314C273.7023,-351.7079 279.5217,-341.9637 284.868,-333.0118"/>
<polygon fill="#c0c0c0" stroke="#c0c0c0" stroke-width="2" points="287.8806,-334.7933 290.0032,-324.4133 281.8708,-331.2041 287.8806,-334.7933"/>
</g>
<!-- 21 -->
<g id="node22" class="node">
<title>21</title>
<path fill="none" stroke="#569ad8" stroke-width="2" d="M548,-396C548,-396 452,-396 452,-396 446,-396 440,-390 440,-384 440,-384 440,-372 440,-372 440,-366 446,-360 452,-360 452,-360 548,-360 548,-360 554,-360 560,-366 560,-372 560,-372 560,-384 560,-384 560,-390 554,-396 548,-396"/>
<text text-anchor="middle" x="500" y="-381" font-family="sans" font-size="10.00" fill="#000000">getReads</text>
<text text-anchor="middle" x="500" y="-370" font-family="sans" font-size="10.00" fill="#000000">sample: SRR1039512</text>
</g>
<!-- 21&#45;&gt;16 -->
<g id="edge27" class="edge">
<title>21&#45;&gt;16</title>
<path fill="none" stroke="#c0c0c0" stroke-width="2" d="M490.9157,-359.8314C486.9385,-351.8771 482.1845,-342.369 477.7861,-333.5723"/>
<polygon fill="#c0c0c0" stroke="#c0c0c0" stroke-width="2" points="480.8093,-331.7923 473.2066,-324.4133 474.5483,-334.9228 480.8093,-331.7923"/>
</g>
<!-- 22 -->
<g id="node23" class="node">
<title>22</title>
<path fill="none" stroke="#569ad8" stroke-width="2" d="M686,-396C686,-396 590,-396 590,-396 584,-396 578,-390 578,-384 578,-384 578,-372 578,-372 578,-366 584,-360 590,-360 590,-360 686,-360 686,-360 692,-360 698,-366 698,-372 698,-372 698,-384 698,-384 698,-390 692,-396 686,-396"/>
<text text-anchor="middle" x="638" y="-381" font-family="sans" font-size="10.00" fill="#000000">getReads</text>
<text text-anchor="middle" x="638" y="-370" font-family="sans" font-size="10.00" fill="#000000">sample: SRR1039513</text>
</g>
<!-- 22&#45;&gt;17 -->
<g id="edge29" class="edge">
<title>22&#45;&gt;17</title>
<path fill="none" stroke="#c0c0c0" stroke-width="2" d="M636.2336,-359.8314C635.485,-352.131 634.5947,-342.9743 633.7627,-334.4166"/>
<polygon fill="#c0c0c0" stroke="#c0c0c0" stroke-width="2" points="637.2415,-334.0276 632.7902,-324.4133 630.2744,-334.7051 637.2415,-334.0276"/>
</g>
</g>
</svg>
