<?xml version="1.0" encoding="UTF-8" standalone="no"?>
<!DOCTYPE svg PUBLIC "-//W3C//DTD SVG 1.1//EN"
 "http://www.w3.org/Graphics/SVG/1.1/DTD/svg11.dtd">
<!-- Generated by graphviz version 2.40.1 (20161225.0304)
 -->
<!-- Title: snakemake_dag Pages: 1 -->
<svg width="174pt" height="332pt"
 viewBox="0.00 0.00 173.50 332.00" xmlns="http://www.w3.org/2000/svg" xmlns:xlink="http://www.w3.org/1999/xlink">
<g id="graph0" class="graph" transform="scale(1 1) rotate(0) translate(4 328)">
<title>snakemake_dag</title>
<polygon fill="#ffffff" stroke="transparent" points="-4,4 -4,-328 169.5,-328 169.5,4 -4,4"/>
<!-- 0 -->
<g id="node1" class="node">
<title>0</title>
<path fill="none" stroke="#d85656" stroke-width="2" d="M92,-36C92,-36 62,-36 62,-36 56,-36 50,-30 50,-24 50,-24 50,-12 50,-12 50,-6 56,0 62,0 62,0 92,0 92,0 98,0 104,-6 104,-12 104,-12 104,-24 104,-24 104,-30 98,-36 92,-36"/>
<text text-anchor="middle" x="77" y="-15.5" font-family="sans" font-size="10.00" fill="#000000">all</text>
</g>
<!-- 1 -->
<g id="node2" class="node">
<title>1</title>
<path fill="none" stroke="#56d8a9" stroke-width="2" d="M105,-108C105,-108 49,-108 49,-108 43,-108 37,-102 37,-96 37,-96 37,-84 37,-84 37,-78 43,-72 49,-72 49,-72 105,-72 105,-72 111,-72 117,-78 117,-84 117,-84 117,-96 117,-96 117,-102 111,-108 105,-108"/>
<text text-anchor="middle" x="77" y="-87.5" font-family="sans" font-size="10.00" fill="#000000">featureCount</text>
</g>
<!-- 1&#45;&gt;0 -->
<g id="edge1" class="edge">
<title>1&#45;&gt;0</title>
<path fill="none" stroke="#c0c0c0" stroke-width="2" d="M77,-71.8314C77,-64.131 77,-54.9743 77,-46.4166"/>
<polygon fill="#c0c0c0" stroke="#c0c0c0" stroke-width="2" points="80.5001,-46.4132 77,-36.4133 73.5001,-46.4133 80.5001,-46.4132"/>
</g>
<!-- 2 -->
<g id="node3" class="node">
<title>2</title>
<path fill="none" stroke="#afd856" stroke-width="2" d="M96,-180C96,-180 58,-180 58,-180 52,-180 46,-174 46,-168 46,-168 46,-156 46,-156 46,-150 52,-144 58,-144 58,-144 96,-144 96,-144 102,-144 108,-150 108,-156 108,-156 108,-168 108,-168 108,-174 102,-180 96,-180"/>
<text text-anchor="middle" x="77" y="-159.5" font-family="sans" font-size="10.00" fill="#000000">sortIndex</text>
</g>
<!-- 2&#45;&gt;1 -->
<g id="edge2" class="edge">
<title>2&#45;&gt;1</title>
<path fill="none" stroke="#c0c0c0" stroke-width="2" d="M77,-143.8314C77,-136.131 77,-126.9743 77,-118.4166"/>
<polygon fill="#c0c0c0" stroke="#c0c0c0" stroke-width="2" points="80.5001,-118.4132 77,-108.4133 73.5001,-118.4133 80.5001,-118.4132"/>
</g>
<!-- 3 -->
<g id="node4" class="node">
<title>3</title>
<path fill="none" stroke="#59d856" stroke-width="2" d="M98,-252C98,-252 56,-252 56,-252 50,-252 44,-246 44,-240 44,-240 44,-228 44,-228 44,-222 50,-216 56,-216 56,-216 98,-216 98,-216 104,-216 110,-222 110,-228 110,-228 110,-240 110,-240 110,-246 104,-252 98,-252"/>
<text text-anchor="middle" x="77" y="-231.5" font-family="sans" font-size="10.00" fill="#000000">alignment</text>
</g>
<!-- 3&#45;&gt;2 -->
<g id="edge3" class="edge">
<title>3&#45;&gt;2</title>
<path fill="none" stroke="#c0c0c0" stroke-width="2" d="M77,-215.8314C77,-208.131 77,-198.9743 77,-190.4166"/>
<polygon fill="#c0c0c0" stroke="#c0c0c0" stroke-width="2" points="80.5001,-190.4132 77,-180.4133 73.5001,-190.4133 80.5001,-190.4132"/>
</g>
<!-- 4 -->
<g id="node5" class="node">
<title>4</title>
<path fill="none" stroke="#56a9d8" stroke-width="2" d="M50,-324C50,-324 12,-324 12,-324 6,-324 0,-318 0,-312 0,-312 0,-300 0,-300 0,-294 6,-288 12,-288 12,-288 50,-288 50,-288 56,-288 62,-294 62,-300 62,-300 62,-312 62,-312 62,-318 56,-324 50,-324"/>
<text text-anchor="middle" x="31" y="-303.5" font-family="sans" font-size="10.00" fill="#000000">getReads</text>
</g>
<!-- 4&#45;&gt;3 -->
<g id="edge5" class="edge">
<title>4&#45;&gt;3</title>
<path fill="none" stroke="#c0c0c0" stroke-width="2" d="M42.6077,-287.8314C47.7978,-279.7079 54.0232,-269.9637 59.7425,-261.0118"/>
<polygon fill="#c0c0c0" stroke="#c0c0c0" stroke-width="2" points="62.8015,-262.7246 65.236,-252.4133 56.9026,-258.9559 62.8015,-262.7246"/>
</g>
<!-- 5 -->
<g id="node6" class="node">
<title>5</title>
<path fill="none" stroke="#d8ac56" stroke-width="2" d="M153.5,-324C153.5,-324 92.5,-324 92.5,-324 86.5,-324 80.5,-318 80.5,-312 80.5,-312 80.5,-300 80.5,-300 80.5,-294 86.5,-288 92.5,-288 92.5,-288 153.5,-288 153.5,-288 159.5,-288 165.5,-294 165.5,-300 165.5,-300 165.5,-312 165.5,-312 165.5,-318 159.5,-324 153.5,-324"/>
<text text-anchor="middle" x="123" y="-303.5" font-family="sans" font-size="10.00" fill="#000000">indexGenome</text>
</g>
<!-- 5&#45;&gt;3 -->
<g id="edge4" class="edge">
<title>5&#45;&gt;3</title>
<path fill="none" stroke="#c0c0c0" stroke-width="2" d="M111.3923,-287.8314C106.2022,-279.7079 99.9768,-269.9637 94.2575,-261.0118"/>
<polygon fill="#c0c0c0" stroke="#c0c0c0" stroke-width="2" points="97.0974,-258.9559 88.764,-252.4133 91.1985,-262.7246 97.0974,-258.9559"/>
</g>
</g>
</svg>
