<?xml version="1.0" encoding="UTF-8" standalone="no"?>
<!DOCTYPE svg PUBLIC "-//W3C//DTD SVG 1.1//EN"
 "http://www.w3.org/Graphics/SVG/1.1/DTD/svg11.dtd">
<!-- Generated by graphviz version 2.40.1 (20161225.0304)
 -->
<!-- Title: snakemake_dag Pages: 1 -->
<svg width="186pt" height="404pt"
 viewBox="0.00 0.00 186.00 404.00" xmlns="http://www.w3.org/2000/svg" xmlns:xlink="http://www.w3.org/1999/xlink">
<g id="graph0" class="graph" transform="scale(1 1) rotate(0) translate(4 400)">
<title>snakemake_dag</title>
<polygon fill="#ffffff" stroke="transparent" points="-4,4 -4,-400 182,-400 182,4 -4,4"/>
<!-- 0 -->
<g id="node1" class="node">
<title>0</title>
<path fill="none" stroke="#d6d856" stroke-width="2" d="M104,-36C104,-36 74,-36 74,-36 68,-36 62,-30 62,-24 62,-24 62,-12 62,-12 62,-6 68,0 74,0 74,0 104,0 104,0 110,0 116,-6 116,-12 116,-12 116,-24 116,-24 116,-30 110,-36 104,-36"/>
<text text-anchor="middle" x="89" y="-15.5" font-family="sans" font-size="10.00" fill="#000000">end</text>
</g>
<!-- 1 -->
<g id="node2" class="node">
<title>1</title>
<path fill="none" stroke="#569ad8" stroke-width="2" d="M124.5,-108C124.5,-108 53.5,-108 53.5,-108 47.5,-108 41.5,-102 41.5,-96 41.5,-96 41.5,-84 41.5,-84 41.5,-78 47.5,-72 53.5,-72 53.5,-72 124.5,-72 124.5,-72 130.5,-72 136.5,-78 136.5,-84 136.5,-84 136.5,-96 136.5,-96 136.5,-102 130.5,-108 124.5,-108"/>
<text text-anchor="middle" x="89" y="-87.5" font-family="sans" font-size="10.00" fill="#000000">summaryReport</text>
</g>
<!-- 1&#45;&gt;0 -->
<g id="edge1" class="edge">
<title>1&#45;&gt;0</title>
<path fill="none" stroke="#c0c0c0" stroke-width="2" d="M89,-71.8314C89,-64.131 89,-54.9743 89,-46.4166"/>
<polygon fill="#c0c0c0" stroke="#c0c0c0" stroke-width="2" points="92.5001,-46.4132 89,-36.4133 85.5001,-46.4133 92.5001,-46.4132"/>
</g>
<!-- 2 -->
<g id="node3" class="node">
<title>2</title>
<path fill="none" stroke="#56d8d8" stroke-width="2" d="M68,-180C68,-180 12,-180 12,-180 6,-180 0,-174 0,-168 0,-168 0,-156 0,-156 0,-150 6,-144 12,-144 12,-144 68,-144 68,-144 74,-144 80,-150 80,-156 80,-156 80,-168 80,-168 80,-174 74,-180 68,-180"/>
<text text-anchor="middle" x="40" y="-159.5" font-family="sans" font-size="10.00" fill="#000000">featureCount</text>
</g>
<!-- 2&#45;&gt;1 -->
<g id="edge3" class="edge">
<title>2&#45;&gt;1</title>
<path fill="none" stroke="#c0c0c0" stroke-width="2" d="M52.3648,-143.8314C57.9509,-135.6232 64.663,-125.7606 70.8072,-116.7323"/>
<polygon fill="#c0c0c0" stroke="#c0c0c0" stroke-width="2" points="73.736,-118.6496 76.4687,-108.4133 67.949,-114.7112 73.736,-118.6496"/>
</g>
<!-- 3 -->
<g id="node4" class="node">
<title>3</title>
<path fill="none" stroke="#56d89a" stroke-width="2" d="M166,-180C166,-180 110,-180 110,-180 104,-180 98,-174 98,-168 98,-168 98,-156 98,-156 98,-150 104,-144 110,-144 110,-144 166,-144 166,-144 172,-144 178,-150 178,-156 178,-156 178,-168 178,-168 178,-174 172,-180 166,-180"/>
<text text-anchor="middle" x="138" y="-159.5" font-family="sans" font-size="10.00" fill="#000000">alignmentQC</text>
</g>
<!-- 3&#45;&gt;1 -->
<g id="edge2" class="edge">
<title>3&#45;&gt;1</title>
<path fill="none" stroke="#c0c0c0" stroke-width="2" d="M125.6352,-143.8314C120.0491,-135.6232 113.337,-125.7606 107.1928,-116.7323"/>
<polygon fill="#c0c0c0" stroke="#c0c0c0" stroke-width="2" points="110.051,-114.7112 101.5313,-108.4133 104.264,-118.6496 110.051,-114.7112"/>
</g>
<!-- 4 -->
<g id="node5" class="node">
<title>4</title>
<path fill="none" stroke="#59d856" stroke-width="2" d="M105.5,-252C105.5,-252 72.5,-252 72.5,-252 66.5,-252 60.5,-246 60.5,-240 60.5,-240 60.5,-228 60.5,-228 60.5,-222 66.5,-216 72.5,-216 72.5,-216 105.5,-216 105.5,-216 111.5,-216 117.5,-222 117.5,-228 117.5,-228 117.5,-240 117.5,-240 117.5,-246 111.5,-252 105.5,-252"/>
<text text-anchor="middle" x="89" y="-231.5" font-family="sans" font-size="10.00" fill="#000000">sortBAM</text>
</g>
<!-- 4&#45;&gt;2 -->
<g id="edge4" class="edge">
<title>4&#45;&gt;2</title>
<path fill="none" stroke="#c0c0c0" stroke-width="2" d="M76.6352,-215.8314C71.0491,-207.6232 64.337,-197.7606 58.1928,-188.7323"/>
<polygon fill="#c0c0c0" stroke="#c0c0c0" stroke-width="2" points="61.051,-186.7112 52.5313,-180.4133 55.264,-190.6496 61.051,-186.7112"/>
</g>
<!-- 4&#45;&gt;3 -->
<g id="edge5" class="edge">
<title>4&#45;&gt;3</title>
<path fill="none" stroke="#c0c0c0" stroke-width="2" d="M101.3648,-215.8314C106.9509,-207.6232 113.663,-197.7606 119.8072,-188.7323"/>
<polygon fill="#c0c0c0" stroke="#c0c0c0" stroke-width="2" points="122.736,-190.6496 125.4687,-180.4133 116.949,-186.7112 122.736,-190.6496"/>
</g>
<!-- 5 -->
<g id="node6" class="node">
<title>5</title>
<path fill="none" stroke="#97d856" stroke-width="2" d="M110,-324C110,-324 68,-324 68,-324 62,-324 56,-318 56,-312 56,-312 56,-300 56,-300 56,-294 62,-288 68,-288 68,-288 110,-288 110,-288 116,-288 122,-294 122,-300 122,-300 122,-312 122,-312 122,-318 116,-324 110,-324"/>
<text text-anchor="middle" x="89" y="-303.5" font-family="sans" font-size="10.00" fill="#000000">alignment</text>
</g>
<!-- 5&#45;&gt;4 -->
<g id="edge6" class="edge">
<title>5&#45;&gt;4</title>
<path fill="none" stroke="#c0c0c0" stroke-width="2" d="M89,-287.8314C89,-280.131 89,-270.9743 89,-262.4166"/>
<polygon fill="#c0c0c0" stroke="#c0c0c0" stroke-width="2" points="92.5001,-262.4132 89,-252.4133 85.5001,-262.4133 92.5001,-262.4132"/>
</g>
<!-- 6 -->
<g id="node7" class="node">
<title>6</title>
<path fill="none" stroke="#d85656" stroke-width="2" d="M73.5,-396C73.5,-396 12.5,-396 12.5,-396 6.5,-396 .5,-390 .5,-384 .5,-384 .5,-372 .5,-372 .5,-366 6.5,-360 12.5,-360 12.5,-360 73.5,-360 73.5,-360 79.5,-360 85.5,-366 85.5,-372 85.5,-372 85.5,-384 85.5,-384 85.5,-390 79.5,-396 73.5,-396"/>
<text text-anchor="middle" x="43" y="-375.5" font-family="sans" font-size="10.00" fill="#000000">indexGenome</text>
</g>
<!-- 6&#45;&gt;5 -->
<g id="edge7" class="edge">
<title>6&#45;&gt;5</title>
<path fill="none" stroke="#c0c0c0" stroke-width="2" d="M54.6077,-359.8314C59.7978,-351.7079 66.0232,-341.9637 71.7425,-333.0118"/>
<polygon fill="#c0c0c0" stroke="#c0c0c0" stroke-width="2" points="74.8015,-334.7246 77.236,-324.4133 68.9026,-330.9559 74.8015,-334.7246"/>
</g>
<!-- 7 -->
<g id="node8" class="node">
<title>7</title>
<path fill="none" stroke="#d89556" stroke-width="2" d="M154,-396C154,-396 116,-396 116,-396 110,-396 104,-390 104,-384 104,-384 104,-372 104,-372 104,-366 110,-360 116,-360 116,-360 154,-360 154,-360 160,-360 166,-366 166,-372 166,-372 166,-384 166,-384 166,-390 160,-396 154,-396"/>
<text text-anchor="middle" x="135" y="-375.5" font-family="sans" font-size="10.00" fill="#000000">getReads</text>
</g>
<!-- 7&#45;&gt;5 -->
<g id="edge8" class="edge">
<title>7&#45;&gt;5</title>
<path fill="none" stroke="#c0c0c0" stroke-width="2" d="M123.3923,-359.8314C118.2022,-351.7079 111.9768,-341.9637 106.2575,-333.0118"/>
<polygon fill="#c0c0c0" stroke="#c0c0c0" stroke-width="2" points="109.0974,-330.9559 100.764,-324.4133 103.1985,-334.7246 109.0974,-330.9559"/>
</g>
</g>
</svg>
